<?xml version="1.0" encoding="UTF-8" standalone="no"?>
<!-- Created with Inkscape (http://www.inkscape.org/) -->

<svg
   xmlns:dc="http://purl.org/dc/elements/1.1/"
   xmlns:cc="http://creativecommons.org/ns#"
   xmlns:rdf="http://www.w3.org/1999/02/22-rdf-syntax-ns#"
   xmlns:svg="http://www.w3.org/2000/svg"
   xmlns="http://www.w3.org/2000/svg"
   xmlns:xlink="http://www.w3.org/1999/xlink"
   xmlns:sodipodi="http://sodipodi.sourceforge.net/DTD/sodipodi-0.dtd"
   xmlns:inkscape="http://www.inkscape.org/namespaces/inkscape"
   version="1.0"
   width="500"
   height="500"
   id="svg2"
   inkscape:version="0.48.1 r9760"
   sodipodi:docname="apples.svg"
   inkscape:export-filename="/docs/FFvideoLiveWallpaperRel/sandbox/apples.png"
   inkscape:export-xdpi="90"
   inkscape:export-ydpi="90">
  <sodipodi:namedview
     pagecolor="#ffffff"
     bordercolor="#666666"
     borderopacity="1"
     objecttolerance="10"
     gridtolerance="10"
     guidetolerance="10"
     inkscape:pageopacity="0"
     inkscape:pageshadow="2"
     inkscape:window-width="964"
     inkscape:window-height="795"
     id="namedview3347"
     showgrid="false"
     inkscape:zoom="0.55079897"
     inkscape:cx="-120.7436"
     inkscape:cy="-25.962811"
     inkscape:window-x="0"
     inkscape:window-y="0"
     inkscape:window-maximized="0"
     inkscape:current-layer="svg2" />
  <defs
     id="defs4">
    <linearGradient
       id="linearGradient4979">
      <stop
         id="stop4981"
         style="stop-color:#000000;stop-opacity:1"
         offset="0" />
      <stop
         id="stop4983"
         style="stop-color:#000000;stop-opacity:0"
         offset="1" />
    </linearGradient>
    <linearGradient
       id="linearGradient4971">
      <stop
         id="stop4973"
         style="stop-color:#000000;stop-opacity:1"
         offset="0" />
      <stop
         id="stop4975"
         style="stop-color:#000000;stop-opacity:0"
         offset="1" />
    </linearGradient>
    <linearGradient
       id="linearGradient4819">
      <stop
         id="stop4821"
         style="stop-color:#2b2200;stop-opacity:1"
         offset="0" />
      <stop
         id="stop4823"
         style="stop-color:#2b2200;stop-opacity:0"
         offset="1" />
    </linearGradient>
    <linearGradient
       id="linearGradient4105">
      <stop
         id="stop4107"
         style="stop-color:#bab65e;stop-opacity:1"
         offset="0" />
      <stop
         id="stop4109"
         style="stop-color:#bab65e;stop-opacity:0"
         offset="1" />
    </linearGradient>
    <pattern
       patternTransform="matrix(0.72667405,0,0,0.72667405,-403.45082,70.678469)"
       id="pattern4898"
       xlink:href="#pattern26663" />
    <pattern
       patternTransform="matrix(0.72667405,0,0,0.72667405,-405.57465,61.12123)"
       id="pattern4896"
       xlink:href="#pattern30611" />
    <linearGradient
       id="linearGradient5058">
      <stop
         id="stop5060"
         style="stop-color:#96b743;stop-opacity:1"
         offset="0" />
      <stop
         id="stop5066"
         style="stop-color:#9bbc48;stop-opacity:0.30150753"
         offset="0.5" />
      <stop
         id="stop5068"
         style="stop-color:#9ebe4a;stop-opacity:0.38190955"
         offset="0.75" />
      <stop
         id="stop5062"
         style="stop-color:#a1c14d;stop-opacity:1"
         offset="1" />
    </linearGradient>
    <linearGradient
       id="linearGradient5031">
      <stop
         id="stop5033"
         style="stop-color:#d6ef77;stop-opacity:1"
         offset="0" />
      <stop
         id="stop5035"
         style="stop-color:#769c29;stop-opacity:1"
         offset="1" />
    </linearGradient>
    <linearGradient
       id="linearGradient4136">
      <stop
         id="stop4138"
         style="stop-color:#80a72a;stop-opacity:1"
         offset="0" />
      <stop
         id="stop4140"
         style="stop-color:#3c5f20;stop-opacity:1"
         offset="1" />
    </linearGradient>
    <linearGradient
       id="linearGradient37696">
      <stop
         id="stop37698"
         style="stop-color:#f8f8f8;stop-opacity:1"
         offset="0" />
      <stop
         id="stop37700"
         style="stop-color:#f8f8f8;stop-opacity:0"
         offset="1" />
    </linearGradient>
    <pattern
       patternTransform="matrix(0.5899937,0,0,0.413556,1.7243548,5.4391049)"
       id="pattern30614"
       xlink:href="#pattern30609" />
    <pattern
       patternTransform="matrix(0.5899937,0,0,0.413556,162.61617,-160.55853)"
       id="pattern30609"
       xlink:href="#pattern26663" />
    <linearGradient
       id="linearGradient30593">
      <stop
         id="stop30595"
         style="stop-color:#000000;stop-opacity:1"
         offset="0" />
      <stop
         id="stop30597"
         style="stop-color:#000000;stop-opacity:0"
         offset="1" />
    </linearGradient>
    <linearGradient
       id="linearGradient28622">
      <stop
         id="stop28624"
         style="stop-color:#ffffff;stop-opacity:1"
         offset="0" />
      <stop
         id="stop28626"
         style="stop-color:#ffffff;stop-opacity:0"
         offset="1" />
    </linearGradient>
    <linearGradient
       id="linearGradient21653">
      <stop
         id="stop21655"
         style="stop-color:#ffffff;stop-opacity:1"
         offset="0" />
      <stop
         id="stop21657"
         style="stop-color:#ffffff;stop-opacity:0"
         offset="1" />
    </linearGradient>
    <linearGradient
       id="linearGradient15314">
      <stop
         id="stop15316"
         style="stop-color:#1d3300;stop-opacity:1"
         offset="0" />
      <stop
         id="stop15318"
         style="stop-color:#68a02c;stop-opacity:0.23684211"
         offset="0.49645391" />
      <stop
         id="stop15320"
         style="stop-color:#61a334;stop-opacity:0"
         offset="1" />
    </linearGradient>
    <linearGradient
       id="linearGradient13303">
      <stop
         id="stop13305"
         style="stop-color:#ffffff;stop-opacity:1"
         offset="0" />
      <stop
         id="stop13307"
         style="stop-color:#ffffff;stop-opacity:0"
         offset="1" />
    </linearGradient>
    <linearGradient
       id="linearGradient13291">
      <stop
         id="stop13293"
         style="stop-color:#b3ff4b;stop-opacity:1"
         offset="0" />
      <stop
         id="stop15283"
         style="stop-color:#68a02c;stop-opacity:1"
         offset="0.73758864" />
      <stop
         id="stop13295"
         style="stop-color:#3c6320;stop-opacity:1"
         offset="1" />
    </linearGradient>
    <linearGradient
       id="linearGradient8740">
      <stop
         id="stop8742"
         style="stop-color:#7aa827;stop-opacity:1"
         offset="0" />
      <stop
         id="stop8744"
         style="stop-color:#a3a827;stop-opacity:0"
         offset="1" />
    </linearGradient>
    <filter
       x="-0.092223659"
       y="-0.11882053"
       width="1.1844473"
       height="1.2376411"
       color-interpolation-filters="sRGB"
       id="filter7541">
      <feGaussianBlur
         id="feGaussianBlur7543"
         stdDeviation="10.987584" />
    </filter>
    <filter
       color-interpolation-filters="sRGB"
       id="filter12154">
      <feGaussianBlur
         id="feGaussianBlur12156"
         stdDeviation="2.9395372" />
    </filter>
    <filter
       color-interpolation-filters="sRGB"
       id="filter13287">
      <feGaussianBlur
         id="feGaussianBlur13289"
         stdDeviation="5.8071908" />
    </filter>
    <clipPath
       id="clipPath14282">
      <path
         d="M 100.84271,272.89235 C 79.36216,377.49483 35.88312,391.59016 -4.98119,389.88503 c -7.88444,-0.32898 -7.53147,1.2321 -16.44968,0.10179 -7.77566,-0.98551 -21.32657,-6.02005 -29.17224,-5.43819 -46.97446,3.48375 -91.99218,-58.48044 -91.99218,-117.48015 0,-66.54593 44.03337,-110.22627 113.13273,-111.82065 95.30491,-2.18227 130.30527,51.09859 130.30527,117.64452 z"
         id="path14284"
         style="color:#000000;fill:#6ea827;fill-opacity:1;fill-rule:nonzero;stroke:none;stroke-width:1px;marker:none;visibility:visible;display:inline;overflow:visible;enable-background:accumulate"
         inkscape:connector-curvature="0" />
    </clipPath>
    <clipPath
       id="clipPath14286">
      <path
         d="m 95.241756,274.24608 c -20.494248,98.94105 -61.976902,112.2735 -100.9648843,110.66066 -7.5224177,-0.31118 -7.1856547,1.16541 -15.6943757,0.0963 -7.418632,-0.93217 -20.347338,-5.69423 -27.832766,-5.14386 -44.817578,3.2952 -87.76826,-55.31529 -87.76826,-111.12174 0,-62.94425 42.01153,-104.26047 107.93812,-105.76856 90.928884,-2.06415 124.322166,48.33297 124.322166,111.27722 z"
         id="path14288"
         style="color:#000000;fill:#6ea827;fill-opacity:1;fill-rule:nonzero;stroke:none;stroke-width:1px;marker:none;visibility:visible;display:inline;overflow:visible;enable-background:accumulate"
         inkscape:connector-curvature="0" />
    </clipPath>
    <clipPath
       id="clipPath14290">
      <path
         d="M 97.161922,268.95702 C 76.144197,373.5595 33.601966,387.65483 -6.3818716,385.9497 c -7.7145604,-0.32898 -7.3691954,1.2321 -16.0952514,0.10179 -7.608124,-0.98551 -20.867063,-6.02005 -28.543688,-5.43819 -45.962337,3.48375 -90.010099,-58.48044 -90.010099,-117.48015 0,-66.54593 43.084621,-110.22627 110.69515,-111.82065 93.251448,-2.18227 127.497682,51.09859 127.497682,117.64452 z"
         id="path14292"
         style="color:#000000;fill:#6ea827;fill-opacity:1;fill-rule:nonzero;stroke:none;stroke-width:1px;marker:none;visibility:visible;display:inline;overflow:visible;enable-background:accumulate"
         inkscape:connector-curvature="0" />
    </clipPath>
    <clipPath
       id="clipPath14294">
      <path
         d="M 100.84271,272.89235 C 79.36216,377.49483 35.88312,391.59016 -4.98119,389.88503 c -7.88444,-0.32898 -7.53147,1.2321 -16.44968,0.10179 -7.77566,-0.98551 -21.32657,-6.02005 -29.17224,-5.43819 -46.97446,3.48375 -91.99218,-58.48044 -91.99218,-117.48015 0,-66.54593 44.03337,-110.22627 113.13273,-111.82065 95.30491,-2.18227 130.30527,51.09859 130.30527,117.64452 z"
         id="path14296"
         style="color:#000000;fill:#6ea827;fill-opacity:1;fill-rule:nonzero;stroke:none;stroke-width:1px;marker:none;visibility:visible;display:inline;overflow:visible;enable-background:accumulate"
         inkscape:connector-curvature="0" />
    </clipPath>
    <filter
       x="-0.02533951"
       y="-0.13370194"
       width="1.050679"
       height="1.2674038"
       color-interpolation-filters="sRGB"
       id="filter18604">
      <feGaussianBlur
         id="feGaussianBlur18606"
         stdDeviation="0.99192556" />
    </filter>
    <filter
       color-interpolation-filters="sRGB"
       id="filter24623">
      <feGaussianBlur
         id="feGaussianBlur24625"
         stdDeviation="0.21459882" />
    </filter>
    <pattern
       id="pattern26663"
       patternTransform="translate(163.81449,-152.8456)"
       height="46.659165"
       width="55.732779"
       patternUnits="userSpaceOnUse">
      <path
         style="opacity:1;color:#000000;fill:#d7eb90;fill-opacity:1;fill-rule:evenodd;stroke:none;stroke-width:1.58396709px;stroke-linecap:butt;stroke-linejoin:miter;marker:none;marker-start:none;marker-mid:none;marker-end:none;stroke-miterlimit:4;stroke-dasharray:none;stroke-dashoffset:0;stroke-opacity:1;visibility:visible;display:inline;overflow:visible;enable-background:accumulate"
         id="path26661"
         d="M -278.71875 -209.70604 A 2.8861411 7.8338113 0 1 1  -284.49103,-209.70604 A 2.8861411 7.8338113 0 1 1  -278.71875 -209.70604 z"
         transform="matrix(0.7409217,0,0,0.4597408,262.24155,100.96523)" />
      <path
         style="opacity:1;color:#000000;fill:#d7eb90;fill-opacity:1;fill-rule:evenodd;stroke:none;stroke-width:1.58396709px;stroke-linecap:butt;stroke-linejoin:miter;marker:none;marker-start:none;marker-mid:none;marker-end:none;stroke-miterlimit:4;stroke-dasharray:none;stroke-dashoffset:0;stroke-opacity:1;visibility:visible;display:inline;overflow:visible;enable-background:accumulate"
         id="path26657"
         d="M -278.71875 -209.70604 A 2.8861411 7.8338113 0 1 1  -284.49103,-209.70604 A 2.8861411 7.8338113 0 1 1  -278.71875 -209.70604 z"
         transform="matrix(0.7409217,0,0,0.4597408,253.16436,126.80313)" />
      <path
         transform="matrix(0.7409217,0,0,0.4597408,241.63603,111.21553)"
         d="M -278.71875 -209.70604 A 2.8861411 7.8338113 0 1 1  -284.49103,-209.70604 A 2.8861411 7.8338113 0 1 1  -278.71875 -209.70604 z"
         id="path26655"
         style="opacity:1;color:#000000;fill:#d7eb90;fill-opacity:1;fill-rule:evenodd;stroke:none;stroke-width:1.58396709px;stroke-linecap:butt;stroke-linejoin:miter;marker:none;marker-start:none;marker-mid:none;marker-end:none;stroke-miterlimit:4;stroke-dasharray:none;stroke-dashoffset:0;stroke-opacity:1;visibility:visible;display:inline;overflow:visible;enable-background:accumulate" />
      <path
         style="opacity:1;color:#000000;fill:#d7eb90;fill-opacity:1;fill-rule:evenodd;stroke:none;stroke-width:1.58396709px;stroke-linecap:butt;stroke-linejoin:miter;marker:none;marker-start:none;marker-mid:none;marker-end:none;stroke-miterlimit:4;stroke-dasharray:none;stroke-dashoffset:0;stroke-opacity:1;visibility:visible;display:inline;overflow:visible;enable-background:accumulate"
         id="path26649"
         d="M -278.71875 -209.70604 A 2.8861411 7.8338113 0 1 1  -284.49103,-209.70604 A 2.8861411 7.8338113 0 1 1  -278.71875 -209.70604 z"
         transform="matrix(0.7409217,0,0,0.4597408,219.22886,100.01194)" />
      <path
         transform="matrix(0.7409217,0,0,0.4597408,236.44017,139.46806)"
         d="M -278.71875 -209.70604 A 2.8861411 7.8338113 0 1 1  -284.49103,-209.70604 A 2.8861411 7.8338113 0 1 1  -278.71875 -209.70604 z"
         id="path26647"
         style="opacity:1;color:#000000;fill:#d7eb90;fill-opacity:1;fill-rule:evenodd;stroke:none;stroke-width:1.58396709px;stroke-linecap:butt;stroke-linejoin:miter;marker:none;marker-start:none;marker-mid:none;marker-end:none;stroke-miterlimit:4;stroke-dasharray:none;stroke-dashoffset:0;stroke-opacity:1;visibility:visible;display:inline;overflow:visible;enable-background:accumulate" />
      <path
         style="opacity:1;color:#000000;fill:#d7eb90;fill-opacity:1;fill-rule:evenodd;stroke:none;stroke-width:1.58396709px;stroke-linecap:butt;stroke-linejoin:miter;marker:none;marker-start:none;marker-mid:none;marker-end:none;stroke-miterlimit:4;stroke-dasharray:none;stroke-dashoffset:0;stroke-opacity:1;visibility:visible;display:inline;overflow:visible;enable-background:accumulate"
         id="path26645"
         d="M -278.71875 -209.70604 A 2.8861411 7.8338113 0 1 1  -284.49103,-209.70604 A 2.8861411 7.8338113 0 1 1  -278.71875 -209.70604 z"
         transform="matrix(0.7409217,0,0,0.4597408,210.78558,125.50416)" />
      <path
         transform="matrix(0.7409217,0,0,0.4597408,210.78558,125.50416)"
         d="M -278.71875 -209.70604 A 2.8861411 7.8338113 0 1 1  -284.49103,-209.70604 A 2.8861411 7.8338113 0 1 1  -278.71875 -209.70604 z"
         id="path26643"
         style="opacity:1;color:#000000;fill:#d7eb90;fill-opacity:1;fill-rule:evenodd;stroke:none;stroke-width:1.58396709px;stroke-linecap:butt;stroke-linejoin:miter;marker:none;marker-start:none;marker-mid:none;marker-end:none;stroke-miterlimit:4;stroke-dasharray:none;stroke-dashoffset:0;stroke-opacity:1;visibility:visible;display:inline;overflow:visible;enable-background:accumulate" />
    </pattern>
    <clipPath
       id="clipPath29604">
      <path
         d="m 214.7035,131.11718 6.077,0.24534 c -2.53429,1.7204 4.83381,-35.34914 16.01425,-42.739397 4.8322,-3.194089 -1.20324,-12.315046 -3.82058,-10.933345 0,0 -6.4702,4.671083 -7.23014,8.093979 -0.75993,3.422886 -6.71906,17.603403 -8.13123,27.845723 -1.41218,10.24232 -2.56255,14.88784 -2.9093,17.4877 z"
         id="path29606"
         style="fill:#372a07;fill-opacity:1;fill-rule:evenodd;stroke:none"
         inkscape:connector-curvature="0" />
    </clipPath>
    <filter
       color-interpolation-filters="sRGB"
       id="filter30589">
      <feGaussianBlur
         id="feGaussianBlur30591"
         stdDeviation="0.5767807" />
    </filter>
    <clipPath
       id="clipPath30603">
      <path
         d="m 172.54666,119.65383 c 0,0 20.11621,15.239 54.07792,11.76129 34.14803,-3.51943 40.78441,-10.05479 40.78441,-10.05479 28.52258,-31.58159 -136.19804,-25.141294 -94.86233,-1.7065 z"
         id="path30605"
         style="fill:url(#radialGradient30607);fill-opacity:1;fill-rule:evenodd;stroke:none"
         inkscape:connector-curvature="0" />
    </clipPath>
    <radialGradient
       cx="-81.081718"
       cy="44.942459"
       r="44.555969"
       fx="-81.081718"
       fy="44.942459"
       id="radialGradient30607"
       xlink:href="#linearGradient15314"
       gradientUnits="userSpaceOnUse"
       gradientTransform="matrix(-0.01460254,-0.9601983,1.935392,-0.02813148,127.59619,52.017867)" />
    <pattern
       id="pattern30611"
       patternTransform="translate(160.89182,-165.99763)"
       height="24.735281"
       width="39.501228"
       patternUnits="userSpaceOnUse">
      <rect
         style="fill:url(#pattern30614);stroke:none"
         width="32.881989"
         height="19.296179"
         x="1.72435"
         y="5.4391022"
         id="rect26672" />
      <rect
         style="fill:none;stroke:none"
         width="39.501228"
         height="24.735281"
         x="0"
         y="0"
         id="rect25640" />
    </pattern>
    <filter
       color-interpolation-filters="sRGB"
       id="filter3417">
      <feGaussianBlur
         id="feGaussianBlur3419"
         stdDeviation="0.95731779" />
    </filter>
    <filter
       color-interpolation-filters="sRGB"
       id="filter4193">
      <feGaussianBlur
         id="feGaussianBlur4195"
         stdDeviation="0.20970285" />
    </filter>
    <linearGradient
       x1="-24.923763"
       y1="174.78334"
       x2="-28.859095"
       y2="272.92316"
       id="linearGradient5029"
       xlink:href="#linearGradient8740"
       gradientUnits="userSpaceOnUse"
       gradientTransform="matrix(0.65981713,0,0,0.6655422,215.85987,89.56793)" />
    <linearGradient
       x1="-24.923763"
       y1="174.78334"
       x2="-28.859095"
       y2="272.92316"
       id="linearGradient3988"
       xlink:href="#linearGradient8740"
       gradientUnits="userSpaceOnUse"
       gradientTransform="matrix(0.78710303,0,0,0.6655422,-510.90479,158.99082)" />
    <filter
       color-interpolation-filters="sRGB"
       id="filter4101">
      <feGaussianBlur
         id="feGaussianBlur4103"
         stdDeviation="0.3481334" />
    </filter>
    <radialGradient
       cx="-36.761387"
       cy="272.79355"
       r="121.719"
       fx="-36.761387"
       fy="272.79355"
       id="radialGradient4891"
       xlink:href="#linearGradient4819"
       gradientUnits="userSpaceOnUse"
       gradientTransform="matrix(1,0,0,0.9662456,0,9.2079832)" />
    <linearGradient
       x1="211.02544"
       y1="147.26143"
       x2="243.94995"
       y2="109.28474"
       id="linearGradient4897"
       xlink:href="#linearGradient30593"
       gradientUnits="userSpaceOnUse"
       gradientTransform="translate(-0.1347958,-0.8087746)" />
    <radialGradient
       cx="314.01831"
       cy="279.3468"
       r="13.878975"
       fx="314.01831"
       fy="279.3468"
       id="radialGradient4915"
       xlink:href="#linearGradient4105"
       gradientUnits="userSpaceOnUse"
       gradientTransform="matrix(-0.00871871,2.6659058,-1.6423453,-0.00537148,722.57677,-470.48105)" />
    <linearGradient
       x1="210.3663"
       y1="338.23438"
       x2="215.15974"
       y2="235.98438"
       id="linearGradient4918"
       xlink:href="#linearGradient5058"
       gradientUnits="userSpaceOnUse"
       gradientTransform="translate(46.420385,96.622841)" />
    <linearGradient
       x1="107.15196"
       y1="422.1535"
       x2="-34.865021"
       y2="492.4823"
       id="linearGradient4921"
       xlink:href="#linearGradient5031"
       gradientUnits="userSpaceOnUse"
       gradientTransform="matrix(0.9964221,0.08451628,-0.08451628,0.9964221,267.51987,-93.389139)" />
    <linearGradient
       x1="220.90099"
       y1="99.833923"
       x2="225.37206"
       y2="101.95313"
       id="linearGradient4924"
       xlink:href="#linearGradient28622"
       gradientUnits="userSpaceOnUse"
       gradientTransform="matrix(-0.39471487,-0.16978167,-0.14105788,0.61584439,365.83541,286.93617)" />
    <radialGradient
       cx="-81.081718"
       cy="44.942459"
       r="44.555969"
       fx="-81.081718"
       fy="44.942459"
       id="radialGradient4932"
       xlink:href="#linearGradient15314"
       gradientUnits="userSpaceOnUse"
       gradientTransform="matrix(-0.00919264,-0.80645808,1.2184316,-0.01279548,204.92033,263.15337)" />
    <linearGradient
       x1="-22.46277"
       y1="436.3421"
       x2="-99.295715"
       y2="625.52313"
       id="linearGradient4936"
       xlink:href="#linearGradient4136"
       gradientUnits="userSpaceOnUse"
       gradientTransform="translate(268.01166,-126.87936)" />
    <radialGradient
       cx="-44.642391"
       cy="283.90643"
       r="121.719"
       fx="-44.642391"
       fy="283.90643"
       id="radialGradient4955"
       xlink:href="#linearGradient13291"
       gradientUnits="userSpaceOnUse"
       gradientTransform="matrix(0.1875219,0.9781218,-0.9090292,0.1742763,237.70374,251.6128)" />
    <linearGradient
       x1="-134.76347"
       y1="343.27988"
       x2="-66.758102"
       y2="311.95261"
       id="linearGradient4957"
       xlink:href="#linearGradient37696"
       gradientUnits="userSpaceOnUse" />
    <linearGradient
       x1="-24.923763"
       y1="174.78334"
       x2="-28.859095"
       y2="272.92316"
       id="linearGradient4959"
       xlink:href="#linearGradient8740"
       gradientUnits="userSpaceOnUse" />
    <linearGradient
       x1="-47.223972"
       y1="206.26599"
       x2="-51.159306"
       y2="295.46683"
       id="linearGradient4961"
       xlink:href="#linearGradient13303"
       gradientUnits="userSpaceOnUse" />
    <radialGradient
       cx="-81.081718"
       cy="44.942459"
       r="44.555969"
       fx="-81.081718"
       fy="44.942459"
       id="radialGradient4963"
       xlink:href="#linearGradient15314"
       gradientUnits="userSpaceOnUse"
       gradientTransform="matrix(-0.00919261,-0.60446491,1.2183698,-0.01770936,-189.63206,105.11054)" />
    <radialGradient
       cx="203.99533"
       cy="148.6814"
       r="41.193069"
       fx="203.99533"
       fy="148.6814"
       id="radialGradient4965"
       xlink:href="#linearGradient21653"
       gradientUnits="userSpaceOnUse"
       gradientTransform="matrix(-1.3366203,-0.1035079,0.02705285,-0.2175988,472.63736,188.55529)" />
    <linearGradient
       x1="211.02544"
       y1="147.26143"
       x2="243.94995"
       y2="109.28474"
       id="linearGradient4967"
       xlink:href="#linearGradient30593"
       gradientUnits="userSpaceOnUse"
       gradientTransform="translate(-0.1347958,-0.8087746)" />
    <linearGradient
       x1="220.90099"
       y1="99.833923"
       x2="225.37206"
       y2="101.95313"
       id="linearGradient4969"
       xlink:href="#linearGradient28622"
       gradientUnits="userSpaceOnUse" />
    <radialGradient
       cx="221.83614"
       cy="314.99686"
       r="82.429848"
       fx="221.83614"
       fy="314.99686"
       id="radialGradient4977"
       xlink:href="#linearGradient4971"
       gradientUnits="userSpaceOnUse"
       gradientTransform="matrix(1,0,0,0.14251781,0,270.10419)" />
    <radialGradient
       cx="221.83614"
       cy="314.99686"
       r="82.429848"
       fx="221.83614"
       fy="314.99686"
       id="radialGradient4985"
       xlink:href="#linearGradient4979"
       gradientUnits="userSpaceOnUse"
       gradientTransform="matrix(1,0,0,0.14251781,0,270.10419)" />
    <radialGradient
       inkscape:collect="always"
       xlink:href="#linearGradient4971"
       id="radialGradient3441"
       gradientUnits="userSpaceOnUse"
       gradientTransform="matrix(0.62952091,0,0,0.11364273,-54.847205,122.43822)"
       cx="221.83614"
       cy="314.99686"
       fx="221.83614"
       fy="314.99686"
       r="82.429848" />
    <radialGradient
       inkscape:collect="always"
       xlink:href="#linearGradient13291"
       id="radialGradient3443"
       gradientUnits="userSpaceOnUse"
       gradientTransform="matrix(0.1875219,0.9781218,-0.9090292,0.1742763,237.70374,251.6128)"
       cx="-44.642391"
       cy="283.90643"
       fx="-44.642391"
       fy="283.90643"
       r="121.719" />
    <linearGradient
       inkscape:collect="always"
       xlink:href="#linearGradient37696"
       id="linearGradient3445"
       gradientUnits="userSpaceOnUse"
       x1="-134.76347"
       y1="343.27988"
       x2="-66.758102"
       y2="311.95261" />
    <linearGradient
       inkscape:collect="always"
       xlink:href="#linearGradient8740"
       id="linearGradient3447"
       gradientUnits="userSpaceOnUse"
       x1="-24.923763"
       y1="174.78334"
       x2="-28.859095"
       y2="272.92316" />
    <linearGradient
       inkscape:collect="always"
       xlink:href="#linearGradient13303"
       id="linearGradient3449"
       gradientUnits="userSpaceOnUse"
       x1="-47.223972"
       y1="206.26599"
       x2="-51.159306"
       y2="295.46683" />
    <radialGradient
       inkscape:collect="always"
       xlink:href="#linearGradient15314"
       id="radialGradient3451"
       gradientUnits="userSpaceOnUse"
       gradientTransform="matrix(-0.00919261,-0.60446491,1.2183698,-0.01770936,-189.63206,105.11054)"
       cx="-81.081718"
       cy="44.942459"
       fx="-81.081718"
       fy="44.942459"
       r="44.555969" />
    <radialGradient
       inkscape:collect="always"
       xlink:href="#linearGradient21653"
       id="radialGradient3453"
       gradientUnits="userSpaceOnUse"
       gradientTransform="matrix(-1.3366203,-0.1035079,0.02705285,-0.2175988,472.63736,188.55529)"
       cx="203.99533"
       cy="148.6814"
       fx="203.99533"
       fy="148.6814"
       r="41.193069" />
    <linearGradient
       inkscape:collect="always"
       xlink:href="#linearGradient30593"
       id="linearGradient3455"
       gradientUnits="userSpaceOnUse"
       gradientTransform="translate(-0.1347958,-0.8087746)"
       x1="211.02544"
       y1="147.26143"
       x2="243.94995"
       y2="109.28474" />
    <linearGradient
       inkscape:collect="always"
       xlink:href="#linearGradient28622"
       id="linearGradient3457"
       gradientUnits="userSpaceOnUse"
       x1="220.90099"
       y1="99.833923"
       x2="225.37206"
       y2="101.95313" />
    <radialGradient
       inkscape:collect="always"
       xlink:href="#linearGradient4979"
       id="radialGradient3459"
       gradientUnits="userSpaceOnUse"
       gradientTransform="matrix(0.62952091,0,0,0.11364273,41.964898,131.85003)"
       cx="221.83614"
       cy="314.99686"
       fx="221.83614"
       fy="314.99686"
       r="82.429848" />
    <radialGradient
       inkscape:collect="always"
       xlink:href="#linearGradient4819"
       id="radialGradient3461"
       gradientUnits="userSpaceOnUse"
       gradientTransform="matrix(1,0,0,0.9662456,0,9.2079832)"
       cx="-36.761387"
       cy="272.79355"
       fx="-36.761387"
       fy="272.79355"
       r="121.719" />
    <linearGradient
       inkscape:collect="always"
       xlink:href="#linearGradient4136"
       id="linearGradient3463"
       gradientUnits="userSpaceOnUse"
       gradientTransform="translate(195.62801,-399.60273)"
       x1="-22.46277"
       y1="436.3421"
       x2="-99.295715"
       y2="625.52313" />
    <radialGradient
       inkscape:collect="always"
       xlink:href="#linearGradient15314"
       id="radialGradient3465"
       gradientUnits="userSpaceOnUse"
       gradientTransform="matrix(-0.00919264,-0.80645808,1.2184316,-0.01279548,132.53668,-9.57)"
       cx="-81.081718"
       cy="44.942459"
       fx="-81.081718"
       fy="44.942459"
       r="44.555969" />
    <linearGradient
       inkscape:collect="always"
       xlink:href="#linearGradient30593"
       id="linearGradient3467"
       gradientUnits="userSpaceOnUse"
       gradientTransform="translate(-0.1347958,-0.8087746)"
       x1="211.02544"
       y1="147.26143"
       x2="243.94995"
       y2="109.28474" />
    <linearGradient
       inkscape:collect="always"
       xlink:href="#linearGradient28622"
       id="linearGradient3469"
       gradientUnits="userSpaceOnUse"
       gradientTransform="matrix(-0.39471487,-0.16978167,-0.14105788,0.61584439,293.45176,14.2128)"
       x1="220.90099"
       y1="99.833923"
       x2="225.37206"
       y2="101.95313" />
    <linearGradient
       inkscape:collect="always"
       xlink:href="#linearGradient5031"
       id="linearGradient3471"
       gradientUnits="userSpaceOnUse"
       gradientTransform="matrix(0.9964221,0.08451628,-0.08451628,0.9964221,195.13622,-366.11251)"
       x1="107.15196"
       y1="422.1535"
       x2="-34.865021"
       y2="492.4823" />
    <linearGradient
       inkscape:collect="always"
       xlink:href="#linearGradient8740"
       id="linearGradient3473"
       gradientUnits="userSpaceOnUse"
       gradientTransform="matrix(0.65981713,0,0,0.6655422,215.85987,89.56793)"
       x1="-24.923763"
       y1="174.78334"
       x2="-28.859095"
       y2="272.92316" />
    <linearGradient
       inkscape:collect="always"
       xlink:href="#linearGradient8740"
       id="linearGradient3475"
       gradientUnits="userSpaceOnUse"
       gradientTransform="matrix(0.78710303,0,0,0.6655422,-510.90479,158.99082)"
       x1="-24.923763"
       y1="174.78334"
       x2="-28.859095"
       y2="272.92316" />
  </defs>
  <metadata
     id="metadata7">
    <rdf:RDF>
      <cc:Work
         rdf:about="">
        <dc:format>image/svg+xml</dc:format>
        <dc:type
           rdf:resource="http://purl.org/dc/dcmitype/StillImage" />
        <dc:title></dc:title>
      </cc:Work>
    </rdf:RDF>
  </metadata>
  <path
     inkscape:connector-curvature="0"
     style="color:#000000;fill:url(#linearGradient3473);fill-opacity:1;fill-rule:nonzero;stroke:none;stroke-width:1px;marker:none;visibility:visible;display:inline;overflow:visible;filter:url(#filter13287);enable-background:accumulate"
     id="path4243"
     clip-path="url(#clipPath14286)"
     transform="translate(0,100)"
     d="m 179.90625,203.03125 c -3.23817,0.0418 -6.47209,0.21064 -9.65625,0.75 -4.79503,0.81223 -9.61397,2.11682 -13.9375,4.34375 -3.74874,1.93087 -7.10438,4.65111 -10.0625,7.65625 -4.20734,4.27423 -7.75812,9.24912 -10.65625,14.5 -2.2648,4.1034 -4.10578,8.4575 -5.53125,12.9375 0.0558,1.30574 0.125,2.57951 0.125,3.71875 l 0,13.09375 c 0,5.45831 -0.44599,8.27762 2.59375,11.34375 4.53221,4.57154 3.4375,-5.85116 3.4375,-9.59375 0,-5.65385 0.32464,-8.20361 3.46875,-11.375 3.81878,-3.85193 9.46037,-5.89976 7.78125,0.875 -1.24866,5.03801 -1.02853,8.37865 0.875,12.21875 2.02618,4.08751 4.04225,5.52144 7.78125,1.75 3.51949,-3.55003 -0.90531,-7.0446 4.34375,-1.75 3.4675,3.49759 5.53999,7.34424 10.375,6.125 4.59731,-1.1593 3.36085,-6.125 11.25,-6.125 5.91522,0 5.33113,2.625 10.40625,2.625 7.47774,0 7.11853,0.44574 9.5,5.25 2.60783,5.26092 4.84062,5.72108 7.8125,8.71875 0.0779,0.0785 0.14238,0.14506 0.21875,0.21875 L 245.25,206.84375 c -2.4178,-2.14905 -4.1326,-2.6875 -8.625,-2.6875 -4.13458,0 -9.30024,-0.16268 -12.125,-0.875 -0.0603,-0.0152 -0.097,-0.0164 -0.15625,-0.0312 -4.22927,0.42699 -8.40776,1.23034 -12.65625,1.3125 -7.36979,0.14249 -14.72348,-1.32295 -22.09375,-1.4375 -3.22913,-0.0502 -6.44933,-0.13551 -9.6875,-0.0937 z" />
  <path
     inkscape:connector-curvature="0"
     style="opacity:0.47692309;color:#000000;fill:#241f1c;fill-opacity:1;fill-rule:nonzero;stroke:none;stroke-width:1px;marker:none;visibility:visible;display:inline;overflow:visible;filter:url(#filter7541);enable-background:accumulate"
     id="path4241"
     clip-path="url(#clipPath14290)"
     transform="translate(0,100)"
     d="m 139.71875,314.09375 c 1.91512,3.90615 3.85635,7.80025 6.40625,11.3125 2.66745,3.67415 5.88316,6.98873 9.28125,10 3.53792,3.13518 7.3895,5.92381 11.46875,8.3125 3.29313,1.92836 10.40625,4.8125 10.40625,4.8125 L 181.84375,339 c -15.77003,0.7883 -31.11239,-9.55143 -42.125,-24.90625 z" />
  <path
     inkscape:connector-curvature="0"
     style="opacity:0.47692309;color:#000000;fill:#241f1c;fill-opacity:1;fill-rule:nonzero;stroke:none;stroke-width:1px;marker:none;visibility:visible;display:inline;overflow:visible;filter:url(#filter7541);enable-background:accumulate"
     id="path3962"
     clip-path="url(#clipPath14290)"
     transform="translate(0,100)"
     d="m -452.625,363.625 c -2.58513,7.81962 -5.44521,14.53521 -8.53125,20.28125 2.51744,-3.66251 4.78056,-7.45262 6.40625,-11.5625 1.10214,-2.78629 1.69367,-5.73597 2.125,-8.71875 z m -136,30.28125 c 3.045,4.73501 6.41484,9.2028 10.375,13.15625 6.35482,6.34405 14.20019,11.38557 22.5,14.8125 8.90034,3.67489 18.68997,5.42384 28.3125,5.78125 8.42444,0.31291 17.10588,-0.52375 25.09375,-3.21875 6.09802,-2.05739 11.80611,-5.49877 16.71875,-9.65625 4.4832,-3.79406 8.14638,-8.43482 11.625,-13.21875 -13.35388,13.17127 -28.91179,15.58899 -43.9375,15 -5.28349,-0.20708 -5.05501,0.77409 -11.03125,0.0625 -5.21059,-0.62039 -14.27374,-3.77254 -19.53125,-3.40625 -14.62268,1.01876 -28.96085,-6.86465 -40.125,-19.3125 z" />
  <path
     inkscape:connector-curvature="0"
     style="opacity:0.09230772;color:#000000;fill:url(#pattern4896);fill-opacity:1;fill-rule:nonzero;stroke:url(#pattern4898);stroke-width:0.72667402px;stroke-linecap:butt;stroke-linejoin:miter;stroke-miterlimit:4;stroke-opacity:1;stroke-dashoffset:0;marker:none;visibility:visible;display:inline;overflow:visible;filter:url(#filter3417);enable-background:accumulate"
     id="path4721"
     clip-path="url(#clipPath14294)"
     transform="translate(0,100)"
     d="m -540.6875,294.53125 c -1.06079,0.005 -2.13663,0.006 -3.21875,0.0312 -27.94976,0.64491 -50.24567,10.78145 -64.53125,27.96875 -0.87584,3.05151 -1.58593,6.14077 -1.96875,9.28125 -0.59727,4.89971 -0.37787,9.97947 0.625,14.8125 2.19241,10.56572 6.66435,20.61968 11.59375,30.21875 5.5145,10.73844 11.39435,21.69008 19.9375,30.21875 6.35482,6.34405 14.20019,11.38557 22.5,14.8125 8.90034,3.67489 18.68997,5.42384 28.3125,5.78125 8.42444,0.31291 17.10588,-0.52375 25.09375,-3.21875 6.09802,-2.05739 11.80611,-5.49877 16.71875,-9.65625 6.57521,-5.56449 11.36399,-12.97643 16.4375,-19.9375 5.25076,-7.20427 11.15843,-14.21026 14.4375,-22.5 2.05782,-5.20232 2.35692,-10.94102 3.09375,-16.5 -7.62869,-35.7076 -34.0234,-61.58296 -89.03125,-61.3125 z" />
  <path
     inkscape:connector-curvature="0"
     style="color:#000000;fill:url(#linearGradient3475);fill-opacity:1;fill-rule:nonzero;stroke:none;stroke-width:1px;marker:none;visibility:visible;display:inline;overflow:visible;filter:url(#filter13287);enable-background:accumulate"
     id="path3964"
     clip-path="url(#clipPath14286)"
     transform="translate(0,100)"
     d="m -534.34375,269.3125 c -0.79589,0.0178 -1.61115,0.0411 -2.40625,0.0937 -6.76527,0.44808 -13.39298,2.13411 -20,3.65625 -7.67098,1.76726 -15.76536,2.74431 -22.75,6.375 -3.82376,1.98762 -6.88553,5.20894 -10,8.1875 -2.44029,2.3338 -4.8278,4.75513 -6.75,7.53125 -3.16634,4.57295 -5.63772,9.62306 -7.71875,14.78125 -2.84292,7.04668 -5.51805,14.33229 -6.4375,21.875 -0.33911,2.78192 -0.40517,5.62277 -0.21875,8.4375 0.18657,0.18048 0.37901,0.34968 0.59375,0.53125 5.40652,4.57154 4.125,-5.85116 4.125,-9.59375 0,-5.65385 0.40561,-8.17236 4.15625,-11.34375 4.55547,-3.85193 11.28429,-5.89976 9.28125,0.875 -1.48955,5.03801 -1.2395,8.37865 1.03125,12.21875 2.41705,4.08751 4.82095,5.52144 9.28125,1.75 4.19844,-3.55003 -1.10541,-7.0446 5.15625,-1.75 4.13642,3.49759 6.63851,7.34424 12.40625,6.125 5.48418,-1.1593 3.99519,-6.125 13.40625,-6.125 7.05633,0 6.35208,2.625 12.40625,2.625 8.92028,0 8.50287,0.41449 11.34375,5.21875 3.11091,5.26092 5.76732,5.75233 9.3125,8.75 4.458,3.7695 6.84325,1.81506 9.28125,6.96875 1.44613,3.05697 6.50863,-4.02389 8.25,-6.96875 2.7875,-4.714 8.98045,-7.64223 13.4375,-10.46875 2.8616,-1.81474 6.01965,1.87685 11.34375,-2.625 5.13364,-4.3408 10.51144,-0.72416 13.4375,1.75 1.25676,1.06266 9.05285,0.37829 13.25,0.0937 0.2764,-3.01234 0.36606,-6.01598 0.15625,-9.03125 -0.56672,-8.14462 -2.6241,-16.28333 -5.78125,-23.8125 -2.82992,-6.74879 -6.40304,-13.49765 -11.59375,-18.65625 -5.39793,-5.36454 -12.3276,-9.27567 -19.46875,-11.90625 -1.78414,-0.65722 -3.62483,-1.06301 -5.5,-1.375 -3.53427,-0.10038 -7.03472,-0.33761 -9.28125,-0.8125 -0.97386,-0.20586 -1.71637,-0.36816 -2.5,-0.53125 -0.073,-0.0103 -0.14571,-0.0209 -0.21875,-0.0312 -4.76803,-0.67507 -9.5461,-1.39903 -14.34375,-1.8125 -5.55729,-0.47894 -11.11624,-1.12477 -16.6875,-1 z" />
  <path
     inkscape:connector-curvature="0"
     style="fill:#bfb555;fill-opacity:1;stroke:none"
     id="path4076"
     d="m -411.66376,167.58793 -2.73872,1.19819 -0.68468,4.27925 2.90989,-0.85585 -1.02702,10.2702 2.39638,-11.29722 z" />
  <g
     id="g3412"
     transform="matrix(1.9431557,0,0,1.9431557,-3.1102601,75.725234)">
    <path
       d="m 136.69459,158.23533 a 51.891313,9.3675532 0 1 1 -103.78262,0 51.891313,9.3675532 0 1 1 103.78262,0 z"
       id="path3325"
       style="opacity:0.56187289;color:#000000;fill:url(#radialGradient3441);fill-opacity:1;fill-rule:evenodd;stroke:none;stroke-width:1.58396709px;marker:none;visibility:visible;display:inline;overflow:visible;enable-background:accumulate"
       inkscape:connector-curvature="0" />
    <g
       transform="translate(212.88494,-117.40104)"
       id="g3272">
      <path
         d="M 100.84271,272.89235 C 79.362165,377.49483 35.883125,391.59016 -4.9811852,389.88503 c -7.8844398,-0.32898 -7.5314698,1.2321 -16.4496798,0.10179 -7.77566,-0.98551 -21.32657,-6.02005 -29.17224,-5.43819 -46.97446,3.48375 -91.992185,-58.48044 -91.992185,-117.48015 0,-66.54593 44.033375,-110.22627 113.132735,-111.82065 95.30491,-2.18227 130.305265,51.09859 130.305265,117.64452 z"
         transform="matrix(0.62952091,0,0,0.62952091,-120.48834,32.726245)"
         clip-path="url(#clipPath14294)"
         id="path3246"
         style="color:#000000;fill:url(#radialGradient3443);fill-opacity:1;fill-rule:nonzero;stroke:url(#linearGradient3445);stroke-width:1.08071625;stroke-linecap:butt;stroke-linejoin:miter;stroke-miterlimit:4;stroke-opacity:0.30084749;stroke-dasharray:none;stroke-dashoffset:0;marker:none;visibility:visible;display:inline;overflow:visible;enable-background:accumulate"
         inkscape:connector-curvature="0" />
      <path
         d="M 100.84271,272.89235 C 79.362165,377.49483 35.883125,391.59016 -4.9811852,389.88503 c -7.8844398,-0.32898 -7.5314698,1.2321 -16.4496798,0.10179 -7.77566,-0.98551 -21.32657,-6.02005 -29.17224,-5.43819 -46.97446,3.48375 -91.992185,-58.48044 -91.992185,-117.48015 0,-66.54593 44.033375,-110.22627 113.132735,-111.82065 95.30491,-2.18227 130.305265,51.09859 130.305265,117.64452 z"
         transform="matrix(0.62952091,0,0,0.62952091,-120.48834,32.726245)"
         clip-path="url(#clipPath14294)"
         id="path3248"
         style="opacity:0.09230772;color:#000000;fill:url(#pattern30611);fill-opacity:1;fill-rule:nonzero;stroke:url(#pattern26663);stroke-width:0.5146268px;stroke-linecap:butt;stroke-linejoin:miter;stroke-miterlimit:4;stroke-opacity:1;stroke-dashoffset:0;marker:none;visibility:visible;display:inline;overflow:visible;filter:url(#filter3417);enable-background:accumulate"
         inkscape:connector-curvature="0" />
      <path
         d="m 92.377658,214.65037 c 3.100284,12.06886 4.53125,25.04536 4.53125,38.5625 -21.480548,104.6025 -64.94819,118.70513 -105.8124997,117 -7.8844403,-0.32895 -7.5505403,1.22406 -16.4687503,0.0937 -7.77566,-0.9855 -21.31058,-6.01936 -29.15625,-5.4375 -29.22413,2.16733 -57.690478,-21.00927 -75.031248,-53.03125 13.12085,45.79255 49.337778,84.68548 86.812498,81.90625 7.84567,-0.58186 21.41185,4.45202 29.1875,5.4375 8.9182103,1.13031 8.5530503,-0.45399 16.4375003,-0.125 40.8643097,1.70513 84.3632067,-12.36629 105.8437517,-116.96875 0,-25.12504 -5.00316,-48.36552 -16.343752,-67.4375 z"
         transform="matrix(0.64338339,0,0,0.62952091,-119.51811,35.203615)"
         clip-path="url(#clipPath14290)"
         id="path3250"
         style="opacity:0.47692309;color:#000000;fill:#241f1c;fill-opacity:1;fill-rule:nonzero;stroke:none;stroke-width:1px;marker:none;visibility:visible;display:inline;overflow:visible;filter:url(#filter7541);enable-background:accumulate"
         inkscape:connector-curvature="0" />
      <path
         d="m -86.577286,173.47156 c -6.700742,-0.91218 -11.022016,5.7749 -15.741324,10.49422 -5.62676,5.62676 -12.10011,9.77067 -15.74132,17.0531 -3.48237,6.96473 -6.97342,8.69972 -10.49422,15.74132 -2.55549,5.11099 -1.31178,13.58959 -1.31178,19.67666 0,6.55888 0,13.11777 0,19.67665 0,8.2013 -0.67162,12.44615 3.93533,17.05311 6.86889,6.86889 5.24711,-8.80618 5.24711,-14.42955 0,-8.49511 0.48199,-12.28798 5.24711,-17.0531 5.78764,-5.78765 14.35082,-8.86754 11.80599,1.31177 -1.89244,7.56979 -1.57316,12.595 1.31178,18.36488 3.070818,6.14163 6.139268,8.29028 11.805993,2.62356 5.334037,-5.33404 -1.396437,-10.57888 6.558886,-2.62356 5.25525,5.25525 8.413519,11.01439 15.741324,9.18244 6.967553,-1.74189 5.096528,-9.18244 17.053102,-9.18244 8.96494,0 8.049616,3.93533 15.741324,3.93533 11.333054,0 10.820265,0.6521 14.429548,7.87067 3.952359,7.90471 7.301901,8.61367 11.8059932,13.11777 5.6638027,5.6638 8.7085566,2.75062 11.8059939,10.49421 1.8372775,4.5932 8.2818409,-6.06946 10.4942169,-10.49421 3.541472,-7.08295 11.390498,-11.49438 17.053101,-15.74133 3.63561,-2.72671 7.665372,2.82885 14.429548,-3.93533 6.522196,-6.5222 13.33559,-1.09396 17.053101,2.62355 1.960306,1.96031 16.55976,0 19.676656,0 5.102503,0 6.558885,-9.14615 6.558885,-14.42954 0,-5.68348 -2.994406,-12.5477 -5.247108,-17.0531 -2.814915,-5.62983 -3.962016,-13.17114 -6.558885,-18.36488 -2.846126,-5.69226 -5.591317,-11.18264 -7.870663,-15.74133 -3.377768,-6.75554 -8.218113,-9.52989 -11.805993,-13.11777 -3.751934,-3.75193 -5.893422,-8.51697 -9.182439,-11.80599 -5.401258,-5.40126 -7.408431,-6.55889 -15.741325,-6.55889 -6.266244,0 -14.08375,-0.24149 -18.364878,-1.31177 -7.1681912,-1.79205 -9.5344423,-2.14367 -15.7413251,-5.24711 -5.7283797,-2.86419 -5.6731877,-5.24711 -14.4295479,-5.24711 -6.558885,0 -13.11777,0 -19.676656,0 -6.558885,0 -13.11777,0 -19.676655,0 -7.807498,0 -10.689447,5.44234 -14.429548,9.18244 -3.34556,3.34556 -11.329587,3.93533 -15.741325,3.93533 z"
         transform="matrix(0.65981713,0,0,0.6655422,-119.84789,21.995335)"
         clip-path="url(#clipPath14286)"
         id="path3252"
         style="color:#000000;fill:url(#linearGradient3447);fill-opacity:1;fill-rule:nonzero;stroke:none;stroke-width:1px;marker:none;visibility:visible;display:inline;overflow:visible;filter:url(#filter13287);enable-background:accumulate"
         inkscape:connector-curvature="0" />
      <path
         d="m -97.071505,237.74864 c -2.43613,2.89007 -5.360555,11.35221 -3.935335,17.0531 2.487635,9.95052 1.562805,10.0266 9.182445,15.74132 4.88811,3.66609 4.65038,8.88408 10.49422,11.806 2.43166,1.21583 2.62355,-14.62085 2.62355,-17.0531 0,-4.12811 5.24711,-6.53836 5.24711,-14.42955 0,-8.83492 0.19591,-11.61009 -3.93533,-15.74133 -2.87485,-2.87484 -17.74502,1.8509 -19.67666,2.62356 z m 52.47109,-3.93533 c -3.65088,-3.65088 -4.70563,15.28368 -3.93534,18.36488 2.47606,9.9042 7.87067,6.7327 7.87067,18.36487 0,9.43993 0.88945,10.07189 5.2471,14.42955 4.41031,4.4103 10.10636,3.51042 17.05311,5.24711 7.33006,1.83251 12.2099597,5.24711 19.6766497,5.24711 8.53414,0 13.3275103,-4.0402 20.9884403,-7.87066 2.25856,-1.12929 6.37336,-14.24403 7.87066,-15.74133 3.33844,-3.33844 -2.62356,-15.13217 -2.62356,-18.36488 0,-7.50999 1.31178,-10.86628 1.31178,-18.36488 0,-4.64745 -10.87306,-9.27715 -15.74132,-10.49421 -5.6231503,-1.40579 -15.6063303,1.31177 -22.3002103,1.31177 -7.0742297,0 -12.4518197,2.62356 -19.6766597,2.62356 -8.65742,0 -8.43431,1.5936 -15.74132,5.24711 z"
         transform="matrix(0.62952091,0,0,0.62952091,-120.48834,32.726245)"
         clip-path="url(#clipPath14282)"
         id="path3254"
         style="opacity:0.35769228;fill:url(#linearGradient3449);fill-opacity:1;fill-rule:evenodd;stroke:none;filter:url(#filter12154)"
         inkscape:connector-curvature="0" />
      <path
         d="m -161.33479,147.6888 c 0,0 12.66357,9.59327 34.04318,7.40397 21.4969,-2.21555 25.67464,-6.3297 25.67464,-6.3297 17.955555,-19.88127 -85.73952,-15.82696 -59.71782,-1.07427 z"
         id="path3256"
         style="fill:url(#radialGradient3451);fill-opacity:1;fill-rule:evenodd;stroke:none"
         inkscape:connector-curvature="0" />
      <path
         d="m 207.50217,98.428603 c 0,0 -30.54893,10.951497 -18.44464,9.798707 22.78886,-7.79131 52.04318,-6.13066 74.93134,1.72919 -17.05106,-14.483841 -33.60675,-12.764649 -56.4867,-11.527897 z"
         transform="matrix(0.73908275,0.08624104,-0.06855163,0.92979974,-285.16745,23.284225)"
         id="path3258"
         style="opacity:0.18461537;color:#000000;fill:#ffffff;fill-opacity:1;fill-rule:evenodd;stroke:none;stroke-width:1.58396709px;marker:none;visibility:visible;display:inline;overflow:visible;filter:url(#filter18604);enable-background:accumulate"
         inkscape:connector-curvature="0" />
      <path
         d="m 186.03125,121.65625 c -6.70591,-1.04375 -15.3789,6.99089 -7.40625,12.0625 10.90386,5.91232 23.63032,7.12692 35.90572,6.70221 14.62828,0.42983 30.15573,-1.11447 42.62553,-9.07721 2.8147,-6.06863 -4.01497,-2.73125 -7.59375,-1.53125 -12.97406,3.43809 -26.75918,3.77735 -40.18339,3.53446 -7.02399,-0.74023 -15.23264,-1.98364 -21.09786,-5.19071 1.27377,-2.35561 0.95986,-6.47901 -2.25,-6.5 z"
         transform="matrix(0.8858435,0,0,1.1224205,-326.59711,8.049265)"
         id="path3260"
         style="opacity:0.46538463;fill:url(#radialGradient3453);fill-opacity:1;fill-rule:evenodd;stroke:none;filter:url(#filter18604)"
         inkscape:connector-curvature="0" />
      <path
         d="m 223.08699,127.66322 c 6.60499,-11.18805 6.60499,-11.18805 6.60499,-11.18805 0,0 2.96551,-7.81816 10.10969,-11.05325 7.14417,-3.2351 12.8056,-2.29153 12.8056,-2.29153 l 7.41376,6.3354 c 0,0 -10.78366,-2.69592 -22.51089,9.30091 -11.72723,11.99682 -19.0062,16.17549 -19.0062,16.17549 -1.85716,-2.81722 -3.50852,4.88001 4.58305,-7.27897 z"
         transform="matrix(0.62818254,-0.04102743,0.04102743,0.62818254,-277.79615,81.666555)"
         clip-path="url(#clipPath30603)"
         id="path3262"
         style="fill:url(#linearGradient3455);fill-opacity:1;fill-rule:evenodd;stroke:none;filter:url(#filter30589)"
         inkscape:connector-curvature="0" />
      <g
         transform="matrix(0.62952091,0,0,0.62952091,-271.31423,72.703645)"
         clip-path="url(#clipPath29604)"
         id="g3264">
        <path
           d="m 214.7035,131.11718 6.077,0.24534 c -2.53429,1.7204 4.83381,-35.34914 16.01425,-42.739397 4.8322,-3.194089 -1.20324,-12.315046 -3.82058,-10.933345 0,0 -6.4702,4.671083 -7.23014,8.093979 -0.75993,3.422886 -6.71906,17.603403 -8.13123,27.845723 -1.41218,10.24232 -2.56255,14.88784 -2.9093,17.4877 z"
           id="path3266"
           style="fill:#372a07;fill-opacity:1;fill-rule:evenodd;stroke:none"
           inkscape:connector-curvature="0" />
        <path
           d="m 233.12929,78.205201 c -0.12825,0.09394 -1.51429,1.100852 -3.08961,2.576782 -1.64764,1.543701 -3.28325,3.574044 -3.54319,4.744882 -0.44268,1.993879 -2.09435,6.278994 -3.85104,11.509312 -1.75669,5.230313 -3.61028,11.288573 -4.29705,16.269673 -1.31859,9.56365 -2.49196,14.88804 -2.90271,17.47904 l 2.64173,0.13885 c -0.008,-0.98025 0.78354,-3.48685 1.03047,-5.11698 0.51738,-3.4156 1.54186,-8.16772 3.01392,-13.20004 1.47206,-5.03233 3.38143,-10.34998 5.64558,-14.923097 2.26416,-4.573114 4.87226,-8.406904 7.98816,-10.466513 0.90562,-0.598618 1.24693,-1.355516 1.3051,-2.37653 0.0582,-1.021014 -0.006,-2.83184 -0.55751,-3.957282 -0.55191,-1.125441 -1.59275,-1.588807 -2.28556,-2.163744 -0.34641,-0.287468 -0.67743,-0.461001 -0.87465,-0.521145 -0.19722,-0.06014 -0.21045,-1.63e-4 -0.22364,0.0068 z"
           id="path3268"
           style="fill:#db9b1e;fill-opacity:0.41101697;fill-rule:evenodd;stroke:none;filter:url(#filter24623)"
           inkscape:connector-curvature="0" />
        <path
           d="m 233.00867,80.086464 c -1.93358,1.568024 -4.24549,3.000519 -5.28679,5.348955 -4.08455,10.784493 -3.95203,12.263057 -6.10929,18.326241 -1.22229,4.92851 -2.08035,9.94211 -3.06811,14.92257 -0.73452,3.87631 -1.44728,7.75671 -2.15147,11.63864 1.23671,0.79578 0.81692,-3.06276 1.54251,-4.40948 1.84043,-14.18161 5.3311,-27.655925 10.86012,-39.626906 1.28987,-2.309855 3.60641,-3.781173 5.55546,-5.454053 -0.13849,-0.508243 -1.00803,-0.385929 -1.34243,-0.745967 z"
           id="path3270"
           style="opacity:0.26153846;fill:url(#linearGradient3457);fill-opacity:1;fill-rule:evenodd;stroke:none"
           inkscape:connector-curvature="0" />
      </g>
    </g>
    <path
       d="m 233.50669,167.64714 a 51.891313,9.3675532 0 1 1 -103.78262,0 51.891313,9.3675532 0 1 1 103.78262,0 z"
       id="path5053"
       style="opacity:0.56187289;color:#000000;fill:url(#radialGradient3459);fill-opacity:1;fill-rule:evenodd;stroke:none;stroke-width:1.58396709px;marker:none;visibility:visible;display:inline;overflow:visible;enable-background:accumulate"
       inkscape:connector-curvature="0" />
    <path
       d="M 100.84271,272.89235 C 79.362165,377.49483 35.883125,391.59016 -4.9811852,389.88503 c -7.8844398,-0.32898 -7.5314698,1.2321 -16.4496798,0.10179 -7.77566,-0.98551 -21.32657,-6.02005 -29.17224,-5.43819 -46.97446,3.48375 -91.992185,-58.48044 -91.992185,-117.48015 0,-66.54593 44.033375,-110.22627 113.132735,-111.82065 95.30491,-2.18227 130.305265,51.09859 130.305265,117.64452 z"
       transform="matrix(0.62952091,0,0,0.62952091,183.75616,-72.30169)"
       clip-path="url(#clipPath14294)"
       id="path4809"
       style="color:#000000;fill:url(#radialGradient3461);fill-opacity:1;fill-rule:nonzero;stroke:url(#pattern26663);stroke-width:0.5146268px;stroke-linecap:butt;stroke-linejoin:miter;stroke-miterlimit:4;stroke-opacity:1;stroke-dashoffset:0;marker:none;visibility:visible;display:inline;overflow:visible;filter:url(#filter3417);enable-background:accumulate"
       inkscape:connector-curvature="0" />
    <path
       d="m 221.71093,25.66722 c 0,0 -14.82666,0.75453 -22.2231,1.36611 -4.60104,0.38045 -9.16007,1.34313 -13.77595,1.43239 -7.36979,0.14249 -14.69663,-1.32043 -22.0669,-1.43498 -6.45825,-0.1003 -12.99766,-0.42248 -19.36598,0.65623 -4.79503,0.81223 -9.60741,2.10868 -13.93094,4.33561 -3.74874,1.93087 -7.11613,4.64611 -10.07425,7.65125 -4.20733,4.27423 -7.75691,9.24764 -10.65504,14.49852 -2.96499,5.37202 -5.21881,11.18508 -6.74026,17.12941 -1.36432,5.33043 -1.95281,10.87456 -2.0786,16.3754 -0.13803,6.03618 0.51844,12.09024 1.45712,18.05459 0.68695,4.36492 1.65842,8.7059 3.04359,12.90182 1.98104,6.00088 4.7008,11.74528 7.48822,17.41673 2.23247,4.54233 4.40669,9.17392 7.3802,13.26965 2.66745,3.67415 5.87021,6.97025 9.2683,9.98152 3.53792,3.13518 7.3981,5.94113 11.47735,8.32982 3.29314,1.92836 10.39831,4.79001 10.39831,4.79001 z"
       id="path4088"
       style="fill:url(#linearGradient3463);fill-opacity:1;stroke:none"
       inkscape:connector-curvature="0" />
    <path
       d="m 180.38016,163.13188 4.22452,-1.02098 3.35028,-1.5549 c 0,0 3.79101,5.10171 6.30522,6.97157 2.09388,1.55725 4.51685,2.82606 7.07145,3.35841 2.55897,0.53327 5.37769,0.62907 7.83768,-0.25474 7.01852,-2.52155 12.41053,-8.42413 17.7112,-13.67013 6.11104,-6.04804 11.76799,-12.75387 15.97083,-20.25452 4.49126,-8.01537 6.99817,-17.03007 9.54946,-25.85664 1.70937,-5.91377 3.1778,-11.94472 3.83119,-18.06581 0.60169,-5.63672 0.53825,-11.35732 0.0631,-17.00611 -0.55568,-6.60675 -1.22502,-13.33344 -3.39515,-19.5983 -1.73291,-5.00273 -4.66106,-9.53725 -7.55036,-13.97372 -2.83103,-4.34698 -5.35372,-9.227 -9.53119,-12.30267 -3.19257,-2.35053 -7.1929,-3.80381 -11.1411,-4.16337 -4.72179,-0.43001 -9.79622,0.30576 -14.00431,2.49032 -3.55758,1.84685 -6.09901,5.28791 -8.53462,8.47148 -3.98563,5.20958 -9.72678,17.10597 -9.72678,17.10597 l -2.86321,6.65369 c 0,0 -4.35673,-10.06345 -7.01644,-14.84798 -2.06288,-3.71089 -3.73775,-7.87727 -6.90844,-10.7009 -2.81662,-2.50832 -6.44777,-4.28232 -10.15069,-4.9989 -4.70779,-0.91104 -9.85649,-0.60601 -14.34463,1.08213 -5.36517,2.01804 -9.60788,6.36518 -13.74956,10.32801 -3.88693,3.71907 -7.39609,7.90513 -10.25256,12.46368 -3.10357,4.95291 -5.70023,10.31646 -7.32819,15.93013 -1.74592,6.02043 -2.03107,12.38757 -2.50045,18.63845 -0.5043,6.71585 -0.54962,13.4702 -0.33417,20.20151 0.17829,5.57047 0.0756,11.23895 1.34502,16.66578 1.08883,4.65487 3.44171,8.92192 5.30666,13.32365 2.4534,5.79061 4.10739,12.07124 7.73582,17.20786 3.5088,4.96724 8.07354,9.31427 13.18308,12.61242 3.49016,2.25286 7.4767,3.88875 11.55886,4.65857 3.16558,0.59697 6.52363,0.61967 9.66363,-0.0999 3.26793,-0.74883 6.35508,-2.35943 9.09912,-4.28568 2.12845,-1.49412 5.52469,-5.50839 5.52469,-5.50839 z"
       id="path4090"
       style="fill:#ffffd0;fill-opacity:1;stroke:none"
       inkscape:connector-curvature="0" />
    <path
       d="m 181.83673,43.60704 c 0,0 5.17392,13.12151 7.29318,13.40398 2.5259,0.33667 9.42464,-14.3297 9.42464,-14.3297 12.20555,-19.13126 -25.98952,-19.32697 -16.71782,0.92572 z"
       id="path4247"
       style="fill:url(#radialGradient3465);fill-opacity:1;fill-rule:evenodd;stroke:none"
       inkscape:connector-curvature="0" />
    <path
       d="m 223.08699,127.66322 c 6.60499,-11.18805 6.60499,-11.18805 6.60499,-11.18805 0,0 2.96551,-7.81816 10.10969,-11.05325 7.14417,-3.2351 12.8056,-2.29153 12.8056,-2.29153 l 7.41376,6.3354 c 0,0 -10.78366,-2.69592 -22.51089,9.30091 -11.72723,11.99682 -19.0062,16.17549 -19.0062,16.17549 -1.85716,-2.81722 -3.50852,4.88001 4.58305,-7.27897 z"
       transform="matrix(0.52048356,-0.2533654,0.2533654,0.52048356,40.422808,43.99459)"
       clip-path="url(#clipPath30603)"
       id="path4092"
       style="fill:url(#linearGradient3467);fill-opacity:1;fill-rule:evenodd;stroke:none"
       inkscape:connector-curvature="0" />
    <path
       d="m 207.50217,98.428603 c -9.20328,-1.189193 -30.54893,10.951497 -18.44464,9.798707 17.31485,-2.34037 51.48584,-9.56083 78.435,-9.49246 -4.49414,-1.466088 -10.35359,-7.455358 -15.67202,-5.803679 -14.27889,4.434417 -35.11506,6.686625 -44.31834,5.497432 z"
       transform="matrix(0.73908275,0.08624104,-0.06855163,0.92979974,24.577043,-81.24371)"
       id="path4249"
       style="opacity:0.18461537;color:#000000;fill:#ffffff;fill-opacity:1;fill-rule:evenodd;stroke:none;stroke-width:1.58396709px;marker:none;visibility:visible;display:inline;overflow:visible;filter:url(#filter18604);enable-background:accumulate"
       inkscape:connector-curvature="0" />
    <path
       d="m 190.20998,58.50786 -2.43329,-0.88067 c 0.75765,1.48977 3.0783,-22.59026 -0.29233,-29.03974 -1.45679,-2.78749 2.21207,-7.37987 3.05028,-6.08458 0,0 1.89499,3.97518 1.71212,6.21218 -0.18287,2.23698 0.16901,11.98173 -0.71834,18.52916 -0.88735,6.54744 -1.08857,9.60367 -1.31844,11.26365 z"
       id="path4096"
       style="fill:#372a07;fill-opacity:1;fill-rule:evenodd;stroke:none"
       inkscape:connector-curvature="0" />
    <path
       d="M 100.84271,272.89235 C 79.362165,377.49483 35.883125,391.59016 -4.9811852,389.88503 c -7.8844398,-0.32898 -7.5314698,1.2321 -16.4496798,0.10179 -7.77566,-0.98551 -21.32657,-6.02005 -29.17224,-5.43819 -46.97446,3.48375 -91.992185,-58.48044 -91.992185,-117.48015 0,-66.54593 44.033375,-110.22627 113.132735,-111.82065 95.30491,-2.18227 130.305265,51.09859 130.305265,117.64452 z"
       transform="matrix(0.62952091,0,0,0.62952091,190.75616,-70.30169)"
       clip-path="url(#clipPath14294)"
       id="path4239"
       style="opacity:0.09230772;color:#000000;fill:url(#pattern30611);fill-opacity:1;fill-rule:nonzero;stroke:url(#pattern26663);stroke-width:0.5146268px;stroke-linecap:butt;stroke-linejoin:miter;stroke-miterlimit:4;stroke-opacity:1;stroke-dashoffset:0;marker:none;visibility:visible;display:inline;overflow:visible;filter:url(#filter3417);enable-background:accumulate"
       inkscape:connector-curvature="0" />
    <path
       d="m 233.12929,78.205201 c -0.12825,0.09394 -1.51429,1.100852 -3.08961,2.576782 -1.64764,1.543701 -3.28325,3.574044 -3.54319,4.744882 -0.44268,1.993879 -2.09435,6.278994 -3.85104,11.509312 -1.75669,5.230313 -3.61028,11.288573 -4.29705,16.269673 -1.31859,9.56365 -2.49196,14.88804 -2.90271,17.47904 l 2.64173,0.13885 c -0.008,-0.98025 0.78354,-3.48685 1.03047,-5.11698 0.51738,-3.4156 1.54186,-8.16772 3.01392,-13.20004 1.47206,-5.03233 3.38143,-10.34998 5.64558,-14.923097 2.26416,-4.573114 4.87226,-8.406904 7.98816,-10.466513 0.90562,-0.598618 1.24693,-1.355516 1.3051,-2.37653 0.0582,-1.021014 -0.006,-2.83184 -0.55751,-3.957282 -0.55191,-1.125441 -1.59275,-1.588807 -2.28556,-2.163744 -0.34641,-0.287468 -0.67743,-0.461001 -0.87465,-0.521145 -0.19722,-0.06014 -0.21045,-1.63e-4 -0.22364,0.0068 z"
       transform="matrix(-0.39471487,-0.16978167,-0.14105788,0.61584439,293.45176,14.2128)"
       id="path4098"
       style="fill:#db9b1e;fill-opacity:0.41101697;fill-rule:evenodd;stroke:none;filter:url(#filter24623)"
       inkscape:connector-curvature="0" />
    <path
       d="m 190.18294,23.973 c 0.54204,1.29394 1.25251,2.56866 1.33227,4.19172 0.091,7.33505 -0.16988,8.22312 -0.17363,12.32336 -0.21276,3.24272 -0.58128,6.476 -0.89392,9.71089 -0.25686,2.51191 -0.52288,5.02265 -0.79251,7.53287 -0.6004,0.28011 0.10958,-2.02488 0.0131,-2.97744 1.27398,-9.04614 1.79682,-17.93687 1.30304,-26.24786 -0.18331,-1.64151 -0.89014,-2.94092 -1.42349,-4.30206 0.12636,-0.28949 0.45233,-0.0665 0.6351,-0.23148 z"
       id="path4100"
       style="opacity:0.26153846;fill:url(#linearGradient3469);fill-opacity:1;fill-rule:evenodd;stroke:none"
       inkscape:connector-curvature="0" />
    <path
       d="m 224.74594,25.03949 c -4.83873,-0.44063 -10.03876,0.31296 -14.39404,2.57393 -3.75217,1.94786 -6.33324,5.48844 -8.76372,8.66533 -4.101,5.36037 -9.80405,17.23305 -9.80405,17.23305 l -0.003,0.0311 -2.25765,5.17144 c -0.89647,-2.05309 -4.03585,-9.201 -6.38766,-13.43166 -2.03295,-3.65706 -3.70815,-7.91453 -7.04281,-10.88418 -2.91735,-2.59803 -6.64357,-4.44374 -10.47424,-5.18504 -4.82988,-0.93466 -10.11503,-0.60738 -14.74226,1.13309 -5.56142,2.09184 -9.86883,6.52828 -13.99827,10.47941 -3.92445,3.75498 -7.4589,7.96276 -10.34995,12.57651 -3.13104,4.99672 -5.7387,10.43034 -7.3889,16.1207 -1.77701,6.12764 -2.06636,12.5539 -2.53467,18.79051 -0.5067,6.74766 -0.55476,13.5132 -0.33873,20.26261 0.17751,5.5467 0.0703,11.26033 1.36621,16.80058 1.11815,4.78026 3.50632,9.0813 5.35218,13.43793 2.42654,5.72725 4.05493,12.07028 7.78068,17.34465 3.56282,5.04372 8.21794,9.45649 13.40334,12.80361 3.5645,2.30085 7.61775,3.97609 11.79582,4.76398 3.251,0.61308 6.70365,0.61648 9.95268,-0.12804 3.38738,-0.77621 6.54538,-2.41977 9.34131,-4.38244 1.16222,-0.81584 2.5491,-2.21599 3.67722,-3.4202 1.04262,-1.11294 1.71792,-1.90174 1.83521,-2.03969 l 4.0032,-0.97766 0.0623,0.005 0.0649,-0.0258 2.87222,-1.32449 c 0.25147,0.33402 0.77584,1.07989 1.8391,2.35135 1.27589,1.52575 2.878,3.29534 4.24453,4.31166 2.15527,1.60291 4.64072,2.91574 7.32624,3.47537 2.64307,0.55079 5.57366,0.67082 8.20894,-0.27595 7.23827,-2.60051 12.70145,-8.61377 17.98423,-13.84207 6.1414,-6.07807 11.84743,-12.82115 16.09423,-20.40026 4.54637,-8.11373 7.05682,-17.17791 9.60679,-25.99985 1.71492,-5.933 3.20514,-12.02432 3.86513,-18.20722 0.60756,-5.69159 0.51881,-11.43737 0.0408,-17.12031 -0.55629,-6.61398 -1.22911,-13.39809 -3.43538,-19.76732 -1.76992,-5.10956 -4.72384,-9.69355 -7.61414,-14.13158 -2.80408,-4.30557 -5.34411,-9.28382 -9.6979,-12.48931 -3.30647,-2.43437 -7.41495,-3.92786 -11.49028,-4.299 z m -0.11885,1.40122 c 3.82107,0.34799 7.68275,1.75096 10.76144,4.01765 4.00114,2.94583 5.53002,7.64483 8.38801,12.03323 2.88829,4.43491 6.75159,9.0241 8.44751,13.92 2.13396,6.16049 1.81953,12.73286 2.3746,19.33237 0.47224,5.61465 1.54142,11.37122 0.94558,16.95307 -0.64679,6.05927 -2.10907,12.06622 -3.81287,17.96076 -2.55264,8.83121 -6.04723,17.69485 -10.48338,25.61187 -4.15888,7.42218 -8.77275,14.17389 -14.85344,20.19189 -5.31857,5.26372 -10.65557,11.06807 -17.45432,13.51066 -2.28473,0.82083 -4.9762,0.73052 -7.45106,0.21479 -2.42368,-0.50507 -4.7829,-1.70093 -6.81538,-3.21251 -1.14767,-0.85355 -2.73461,-2.57735 -3.98277,-4.06992 -1.24816,-1.49258 -2.18107,-2.75671 -2.18107,-2.75671 l -0.33668,-0.46762 -0.52198,0.23798 -3.20209,1.51605 -0.0311,-0.003 -0.0987,0.0544 -4.09662,0.96973 -0.22325,0.0438 -0.1404,0.17627 c 0,0 -0.83971,1.01102 -1.94182,2.18746 -1.10211,1.17646 -2.50566,2.5398 -3.4719,3.21808 -2.69214,1.88982 -5.70463,3.45149 -8.85311,4.17295 -3.03097,0.69456 -6.3041,0.66304 -9.38427,0.0822 -3.98625,-0.75172 -7.86384,-2.35851 -11.27968,-4.56339 -5.03367,-3.24919 -9.54169,-7.53336 -12.99646,-12.42412 -3.53113,-4.99887 -5.19702,-11.23102 -7.67726,-17.08498 -1.88407,-4.44685 -4.21774,-8.68255 -5.27725,-13.21204 -1.24287,-5.31341 -1.14866,-10.92081 -1.32771,-16.51505 -0.21487,-6.71321 -0.1426,-13.4514 0.35931,-20.13542 0.47049,-6.26517 0.73116,-12.5712 2.44599,-18.48441 1.60572,-5.53699 4.18766,-10.84587 7.26379,-15.75496 2.82188,-4.50336 6.29258,-8.66007 10.14199,-12.34325 4.1539,-3.97453 8.33319,-8.23229 13.50214,-10.17651 4.34903,-1.63583 9.39603,-1.92821 13.98174,-1.04079 3.57515,0.69185 7.09709,2.42807 9.81298,4.84669 3.00673,2.67761 3.67124,6.66599 5.76405,10.43073 2.61492,4.70393 7.99198,14.8536 7.99198,14.8536 l 0.62583,1.49574 0.65875,-1.48087 2.8515,-6.62646 0.003,-0.0311 c 0.0224,-0.0463 5.79301,-11.91444 9.65573,-16.96338 2.44073,-3.19026 4.92779,-6.52052 8.2908,-8.26636 4.0609,-2.10815 9.02338,-2.83871 13.62824,-2.41935 z"
       id="path4102"
       style="font-size:medium;font-style:normal;font-variant:normal;font-weight:normal;font-stretch:normal;text-indent:0;text-align:start;text-decoration:none;line-height:normal;letter-spacing:normal;word-spacing:normal;text-transform:none;direction:ltr;block-progression:tb;writing-mode:lr-tb;text-anchor:start;baseline-shift:baseline;color:#000000;fill:url(#linearGradient3471);fill-opacity:1;stroke:none;stroke-width:1.39999998;marker:none;visibility:visible;display:inline;overflow:visible;enable-background:accumulate;font-family:Sans;-inkscape-font-specification:Sans"
       inkscape:connector-curvature="0" />
  </g>
</svg>
